<svg xmlns="http://www.w3.org/2000/svg" width="39" height="36" viewBox="0 0 39 36">
    <path fill="#FFF" fill-rule="evenodd" d="M9.435 15.583V4.691c0-.53.327-1.007.822-1.199L19.036.091c.298-.116.63-.116.928 0l8.78 3.4c.494.192.82.668.82 1.2v10.892l8.615 3.337c.495.192.821.668.821 1.199v11.208c0 .532-.327 1.008-.823 1.2l-8.78 3.383a1.286 1.286 0 0 1-.924 0l-8.779-3.383a1.287 1.287 0 0 1-.194-.095 1.287 1.287 0 0 1-.194.095l-8.78 3.383a1.286 1.286 0 0 1-.924 0L.823 32.527a1.286 1.286 0 0 1-.823-1.2V20.12c0-.531.326-1.007.821-1.199l8.614-3.338zm-6.998 4.668l7.628 2.893 7.627-2.893-7.627-2.892-7.627 2.892zm-.55 1.93v8.826l6.92 2.637v-8.825l-6.92-2.639zm16.355 0l-6.92 2.638v8.825l6.92-2.637V22.18zm3.066-1.93l7.627 2.893 7.628-2.893-7.628-2.892-7.627 2.892zm-.55 1.93v8.826l6.92 2.637v-8.825l-6.92-2.639zm16.355 0l-6.92 2.638v8.825l6.92-2.637V22.18zM11.873 4.822L19.5 7.715l7.627-2.892L19.5 1.93l-7.627 2.893zm-.55 1.929v8.827l6.919 2.636V9.39l-6.92-2.638zm16.354 0L20.758 9.39v8.825l6.92-2.636V6.752z"/>
</svg>
