<svg xmlns="http://www.w3.org/2000/svg" width="40" height="36" viewBox="0 0 40 36">
    <path fill="#FFF" fill-rule="evenodd" d="M38.719 33.125c.373 0 .68.121.92.363s.361.552.361.929v.291c0 .377-.12.687-.36.929s-.548.363-.921.363H2.562c-.694 0-1.294-.256-1.801-.767C.254 34.722 0 34.116 0 33.417V1.292C0 .915.12.605.36.363S.908 0 1.281 0h.282c.373 0 .68.121.92.363s.36.552.36.929v31.833H38.72zM30.812 28c-.208 0-.395-.11-.562-.328a1.187 1.187 0 0 1-.25-.738V8.066c0-.273.083-.52.25-.738.167-.219.354-.328.563-.328h1.375c.208 0 .395.11.562.328.167.219.25.465.25.738v18.868c0 .273-.083.52-.25.738-.167.219-.354.328-.563.328h-1.374zm-14 0c-.208 0-.395-.107-.562-.321a1.148 1.148 0 0 1-.25-.724v-15.91c0-.268.083-.51.25-.724.167-.214.354-.321.563-.321h1.375c.208 0 .395.107.562.321.167.215.25.456.25.724v15.91c0 .268-.083.51-.25.724-.167.214-.354.321-.563.321h-1.375zm7 0c-.208 0-.395-.108-.562-.325a1.169 1.169 0 0 1-.25-.731V16.056c0-.27.083-.514.25-.731.167-.217.354-.325.563-.325h1.375c.208 0 .395.108.562.325.167.217.25.46.25.731v10.888c0 .27-.083.514-.25.731-.167.217-.354.325-.563.325h-1.375zm-14 0c-.208 0-.395-.111-.562-.333a1.219 1.219 0 0 1-.25-.75v-5.834c0-.277.083-.527.25-.75.167-.222.354-.333.563-.333h1.374c.209 0 .396.111.563.333.167.223.25.473.25.75v5.834c0 .277-.083.527-.25.75-.167.222-.354.333-.563.333H9.813z"/>
</svg>
