<svg xmlns="http://www.w3.org/2000/svg" width="36" height="36" viewBox="0 0 36 36">
    <path fill="#FFF" fill-rule="evenodd" d="M35.508 31.148c.328.328.492.727.492 1.196 0 .468-.164.867-.492 1.195l-1.969 1.969a1.627 1.627 0 0 1-1.195.492c-.47 0-.868-.164-1.196-.492l-7.03-7.032a1.627 1.627 0 0 1-.493-1.195v-1.125C21 28.22 18 29.25 14.625 29.25c-2.672 0-5.121-.656-7.348-1.969a14.776 14.776 0 0 1-5.308-5.308C.656 19.746 0 17.297 0 14.625c0-2.672.656-5.121 1.969-7.348A14.776 14.776 0 0 1 7.277 1.97C9.504.656 11.953 0 14.625 0c2.672 0 5.121.656 7.348 1.969a14.776 14.776 0 0 1 5.308 5.308c1.313 2.227 1.969 4.676 1.969 7.348 0 3.375-1.031 6.375-3.094 9h1.125c.469 0 .867.164 1.195.492l7.032 7.031zm-20.883-5.523c2.005 0 3.853-.487 5.543-1.461a10.701 10.701 0 0 0 3.996-3.996c.974-1.69 1.46-3.538 1.46-5.543 0-2.005-.486-3.853-1.46-5.543a10.701 10.701 0 0 0-3.996-3.996c-1.69-.974-3.538-1.461-5.543-1.461-2.005 0-3.853.487-5.543 1.46a10.701 10.701 0 0 0-3.996 3.997c-.974 1.69-1.461 3.538-1.461 5.543 0 2.005.487 3.853 1.46 5.543a10.701 10.701 0 0 0 3.997 3.996c1.69.974 3.538 1.46 5.543 1.46z"/>
</svg>
