<svg xmlns="http://www.w3.org/2000/svg" width="382" height="243" viewBox="0 0 382 243">
    <g fill="none" fill-rule="evenodd">
        <g fill-rule="nonzero">
            <path fill="#BFE673" d="M63.308 186.496l-.125 35.691.666.418 1.29.084.625-.46h1.082l.083 1.212 2.914 2.842.208 1.087 1.415-.795.25-.083.125-1.296.624-.668.458-.084.79-.627 1.291.878.25 1.212.79.46.459 1.003 1.623.752 1.415 2.507 1.124 1.63.957 1.129.625 1.546 2.08.752 2.165.878.416 1.839.208 1.295-.416 1.421-.749.962-.666-.335-.624-1.295-1.124-.627-.75-.46-.332.334.624 1.129.083 1.546-.458.21-.79-.795-.875-.543.209.668.54.753-.332.334s-.333-.125-.541-.418c-.208-.25-.874-1.42-.874-1.42l-.417-.962s-.125.543-.416.418c-.25-.126-.541-.627-.541-.627l.75-.794-.625-.627v-2.09h-.333l-.333 1.421-.458.21-.416-1.547-.25-1.546-.333-.21.125 2.383v.46l-.624-.544-1.499-2.507-.874-.21-.25-1.546-.666-1.212-.666-.46v-.96l.875-.544-.209-.125-1.082.25-1.415-1.003-1.082-1.212-1.998-1.086-1.665-1.087.541-1.337v-.669l-.749.669-1.207.46-1.54-.46-2.373-1.003h-2.289l-.25.209-2.705-1.63-.874-.125-1.124-2.424-1.498.125-1.499.627.208 1.88.458-1.212.416.126-.624 1.839 1.332-1.129.25.669-1.624 1.839-.54-.125-.209-.795-.54-.334-.542.46-1.124-.752-1.29.877-.75.878-1.415.878-1.956-.084-.208-.878 1.54-.25v-.544l-.957-.25.416-1.004.957-1.63v-.752l.084-.334 1.831-.961.416.543h1.124l-.541-1.087-1.54-.125-2.081 1.128-1 1.421-.748 1.087-.458.961-1.748.627-1.29 1.087-.126.668.958.418.333.878-1.124 1.337-2.706 1.756-3.246 1.755-.874.46-2.206.46-2.206.96.749.544-.624.627-.208.46-1.124-.418-1.332.083-.333.961h-.416l.124-1.003-1.498.544-1.207.418-1.415-.544-1.207.794h-1.332l-.874.544-.666.334-.874-.125-1.082-.46-.958.25-.416.419-.666-.46v-.794l1.29-.543 2.623.25 1.83-.668.875-.878 1.207-.25.75-.335 1.123.083.666.544.416-.126.958-1.128 1.29-.418 1.415-.25.541-.126.25.209h.333l.541-1.546 1.665-.627.79-1.547.958-1.88.666-.627.125-1.087-.666.543-1.415.251-.25-1.003-.541-.125-.416.418-.084 1.212-.624-.084-.624-2.424-.541.543-.458-.209-.125-.794-1.665.084-.874.46-1.082-.126.624-.627.208-1.086-.25-.794.625-.418.54-.084-.249-.752v-1.839l-.416-.418-.333.627H20.52l-.624-.543-.25-1.63-.874-1.505v-.418l.874-.334.083-.878.458-.46-.333-.208-.541.209-.458-1.129.416-2.09 1.873-1.337 1.083-.668.79-1.547 1.124-.543 1.082.46.125 1.003 1-.126 1.331-1.003.666.251.416.25h.666l.958-.543.333-1.838s.124-1.212.416-1.421c.25-.21.416-.418.416-.418l-.458-.794-1.082.334-1.332.334-.79-.209-1.5-.752-2.08-.083-1.499-1.547.208-1.63.25-1.003-.874-.752-.79-1.546.207-.335 2.83-.209h.875l.416.418h.25l-.084-.668 1.624-.251 1.082.125.624.46-.624.878-.208.626 1.124.67 2.08.751.75-.418-.957-1.838-.417-1.338.417-.334-1.416-.794-.208-.46.208-.669-.332-1.63-1.208-1.964-.998-1.755 1.207-.794h1.331l.75.25 1.748-.083 1.54-1.504.458-1.296 1.54-1.003.666.418 1.124-.25 1.54-.879.457-.083.417.334 1.873-.083 1.124-1.296h.457l1.499 1.003.79.878-.207.46.25.46.665-.67 1.624.126.124 1.546.791.627 2.955.25 2.623 1.756.624-.418 2.164 1.087.874-.25.791-.335 1.998.794 1.873 1.128zM15.4 198.574l.874 2.215-.083.418-1.207-.125-.749-1.672-.75-.627h-.998l-.083-1.086.749-1.003.458 1.003.624.627 1.165.25zm-1.082 14l1.54.335 1.54.418.333.418-.666 1.546-1.29-.083-1.415-1.505-.042-1.128zm-8.616-5.892l.458 1.087.458.668-.458.335-.874-1.296v-.794h.416zM0 237.232l1.415-.96 1.415-.419 1.083.126.208.669.79.208.791-.794-.125-.668 1.124-.251 1.207 1.087-.458.752-1.83.46-1.125-.21-1.54-.46-1.831.628-.666.125-.458-.292zm20.354-1.88l.665.794.875-.669-.625-.543-.915.418zm1.207 1.254l.457-.962.875.126-.333.794h-1v.042zm9.823-.794l.624.752.416-.46-.333-.794-.707.502zm3.662-5.224l.458 2.424 1.207.334 2.081-1.212 1.832-1.087-.666-1.003.208-1.003-.874.544-1.207-.335.666-.46.79.335 1.624-.752.208-.627-.999-.335.333-.794-1.124.794-1.956 1.505-1.998 1.212-.583.46zm17.607-8.275l.999-.627-.417-.753-.749.418.167.962z"/>
            <path fill="#FFD966" d="M93.313 213.994l.787-1.5.953-.124.124.333-.87 1.291h-.994zm4.226-1.54l2.527 1.082.87-.125.663-1.624-.249-1.417-1.74-.208-1.657.75-.414 1.541zm12.718 4.165l1.533 2.29.994-.124.456-.208.621.541 1.533-.083.414-.625-1.2-.75-.788-1.541-.87-1.5-2.403 1.208-.29.792zm8.369 3.707l.538-.791 1.947.416.249-.208 2.527.25-.124.541-1.077.625-1.823-.125-2.237-.708zm2.195 2.166l.787 1.625 1.285-.458.124-.667-.663-.875-1.533-.125v.5zm2.9-.5l.953-1.208 1.947 1 1.823.458 1.823 1.125v.792l-1.491.75-1.989.416-.994-.625-2.072-2.708zm6.877 6.499l.663-.542 1.409.667 3.148 1.5 1.409.874.663 1 .787 1.833 1.657 1.083-.124.541-1.616 1.333-1.74.625-.621-.25-1.285.75-.994 1.333-.953 1.208-.746-.083-1.49-1.083-.125-1.875.248-1-.663-2.374-.87-.75-.082-1.083.952-.416.87-1.292.208-.416-.663-.75-.042-.833z"/>
            <path fill="#E3E3E3" d="M257.475 192.168l.25.083.544-1.126.627-1.837.962.25 1.296 2.505v.417l-1.129.793 1.129.125 2.173-1.043-.125-3.172-1.045-.751-.836-.835.167-1.67 4.39-.626 10.742-1.21 2.8-.25 2.341.041-.209-.918-.627-.334-.376-.459.418-1.085-.167-2.17-.669-1.879.335-2.128.71-2.004-.083-.71-.753-.291-.209-1.503-1.128-1.419-.836-2.713-.586-2.796-.752-2.087-1.588-6.678-1.464-3.297-.334-2.338.042-.918-3.762.334-9.782.918-5.1.334-.083 2.671.084 6.97-.293 12.939-.125 5.885 1.17 7.847.669 6.135zM240.495 141.683l-2.655-.293.374-1.299 1.286-1.089.249-.963-.747-1.215-13.235.503-9.667.293-9.79.126.621 2.89.042 3.56.58 4.566.125 16 .872.67 1.244-.503 1.203.503.166 4.23 10.455-.084 11.12-.335.373-.796-.125-1.591-.705-1.299.622-.586-.58-.921.29-1.006.456-2.47 1.12-.964-.332-.922 1.66-2.345 1.037-.461-.041-.712-.208-.712 1.203-2.43 1.038-.46.082-1.382.872-.587.373-1.717-.58-1.675 1.742-1.006.124-.88.498-1.758.374-1.299zM52.249 159.87l-.125.625.208.417 7.875 4.46 5.042 3.168 6.125 3.585 7 4.168 5.125 1 10.583 1.126 2.5-16.507 2.917-22.134 1.833-12.922-10.25-1.5-25.291-4.586-.084.459-1.083 6.878-.875 1.584-1.167-.084-.5-1.084-1.083-.166-.5-.459-.458.042-.875.709-.125 2.834-.125.625-.209 5.21-.625 1.001-.166 1.376 1.166 2.084.459 2.292.291.459.459.375-.167 1-.708.5-1.417.668-.667.75-.666 1.5-.209 2.043-1.25 1.209-.791.375-.042 2.418-.25.667.208.333 1.625.167-.375 1.25-.708 1-1.542.168z"/>
            <path fill="#FFD966" d="M47.246 158.342l-8.166-1.122-4.145-.623-.207-.748v-3.907l-.125-1.33-1.078-1.745-.331-.956-1.617-1.746-1.202-1.953-1.12-.083-1.326-.333-.124-.415.622-.25-.249-1.33-.622-.872-1.99-.333-1.616-.872-.456-.956-1.078-1.995-1.202-1.288h-1.202l-1.617-.873-1.865-.748-1.741-.208-.995-1.122.207-.79.746-2.95.332-.79v-.997l-.663-.416-.208-1.205-.621-1.08-1.41-2.411-.539-1.289-.622-1.953-.663-2.202-1.326-1.829-.208-1.205.332-1.621h.456l.87-.665.457-1.496-.415-1.122-1.12-.208-.787-1.08-.87-1.538-.083-3.408.249-.79.248-.956.207-.997-2.362-2.618v-.873l.124-.208.124-1.33-.538-1.662-.954-1.995-1.12-1.87-.745-1.62.414-1.539.249-2.41.746-1.288.124-2.702-.456-1.496-.663-1.745-1.119-1.746.332-1.33.621-1.745.747-.333.124-.457 1.285-1.08 2.156-4.904.082-3.076.701-2.036 16.038 4.904 10.612 2.743-3.316 13.008-3.594 13.756 5.235 7.98 17.477 25.89 7.088 10.848-.166 1.288 1.161 2.161.456 2.244.415.624.29.249-.083.582-.58.415-1.41.665-.787.873-.705 1.62-.207 1.954-1.078 1.04-.954.456-.041 2.577-.249.79.415.706 1.243.125-.165.665-.58.83-1.617.25-5.887-.374zM16.613 138.02l.538.623-.082.54-1.327-.041-.249-.499-.248-.623h1.368zm.787 0l.498-.25 1.492.873 1.285.499-.373.25-1.865-.084-.664-.665-.373-.623zm8.581 8.228l.746.956.332.416.622.25.248-.624-.414-.748-1.12-.831-.455.083v.498h.041zm-.58 3.616l.746 1.33.497.79-.622.083-.538-.499s-.29-.623-.29-.79v-.914h.207z"/>
            <path fill="#FFB3B3" d="M154.185 95.892l-14.973-1.458-32.899-3.583-.915 9.206-2.911 20.995-.79 5.707 14.14 1.625 15.598 1.833 14.432 1.25 5.947.25z"/>
            <path fill="#FFD966" d="M350.638 77.024l1.488-1.337.785-.878.33.25 1.117-.627 2.15-.46 2.893-1.463-.248-1.756-.33-1.84-.662-2.508-1.778.46-9.01 1.965.247 1.296.62 3.052v3.47l-.372.878.703.92z"/>
            <path fill="#BFE673" d="M343.135 100.727l-.416.208-1.498-1-.749-1.958-.79-1.5-.957-.417-.874-1.5.208-.833.208-.958.042-.458-.25.041-.707.417-.832.708-.083.125.582 1.709.957 2.333 1.54 6.707 2.08-.125 2.496-.458z"/>
            <path fill="#FFD966" d="M308.147 183.09l-2.165-.293-.292.335.625 1.838-.167 2.172-1.707-.418-.083-1.17h-1.708l-2.207.293-13.493.794-3.415-.126-.707-.71-1.042-1.754h-2.457l-2.748.208-14.742 1.755-.125 1.17.666.668 1.208.836.125 3.509 1.374-.25 2.499-.878 2.498-.209 1.833-.25 3.165.751 3.373 1.63.666.626 1.208.46.666.794.125 1.128 1.333-.543h1.624l1.499-.794 1.54-1.504 1.292.083.208-.46-.333-.417.083-.794 1.666-.334h1.083l1.207.627 1.75.626.999 1.546 1.124.418.458 1.42 1.416.669.667 1.086.791.25 2.165.544.542 1.295 1.25 1.545v3.97l-.625 1.963.124 1.128.542 2.005.75 1.671.333-.209.624-1.88-1.083-.418-.124-.25.666-.25 1.874.417.083.668-1.332 2.298-.875 1.003 1.5 1.545 1.082 1.295 1.208 2.215 1.207 1.629.875 2.089.75.125.666-.877.75.46 1.082 1.67.25 1.504 1.291 1.838.333-.543 1.624.126 1.5.96 1.415 2.173.334 1.42.124 1.212.459.417.541.21 1-.418.624-.669 1.624-.083 1.291-.627 1.125-1.337-.209-.794-.125-1.002.25-.794-.125-.794 1-.543.125-1.42-.25-.752-.208-5.013-.542-3.175-1.874-3.426-1.499-2.423-1.083-2.214-1.207-1.212-1.208-3.091.291-.585.459-.543-.667-1.212-1.666-1.545-1.998-2.298-1.541-2.632-2.207-3.927-1.541-4.052-.958-3.05-2.166-.125zm7.371 55.437l1-.25.541-.084.625-.961.958-.669.541.21.708.125.167.46-1.458.5-1.749.627-.958.501-.375-.46zm5.622-2.089l.5.46 1.125-.878 2.207-1.754 1.54-1.63 1.042-2.757.416-.71.083-1.42-.291.209-.417 1.17-.624 1.921-1.333 2.214-1.832 1.755-1.416.793-1 .627z"/>
            <path fill="#FFB3B3" d="M308.193 182.845l-2.339-.292-.584.668.668 1.962-.126 1.628-.918-.25-.084-1.253h-2.171l-2.213.292-13.488.793-3.215-.125-.585-.5-1.044-1.796-.334-1.377-.668-.376-.209-.208.376-.919-.167-2.296-.668-1.878.334-2.045.71-2.004-.084-1.043-.793-.293-.167-1.335-1.17-1.461-.793-2.588-.626-2.922-.71-2.004-1.587-6.678-1.462-3.34-.334-2.212.042-.96 1.378-.125 5.68-.668 7.766-.835 2.63-.46.21.585-.919.376-.376.918.167.835.585.668 1.795 1.127 1.337-.042 1.336 1.962.25.668.961 1.169.209.71 1.962.75 1.253.919.96 1.252.961.543.835.751.585 1.127.877.793 1.712.752 1.127 2.504.71 2.129 1.17.292.876.793.835 2.38 1.211.667.71-.334.167.501-1.378 2.588.21 1.086-.627 1.753-.96 4.174.333 2.63z"/>
            <path fill="#E3E3E3" d="M227.871 73.983l.877.875.125.292-.835 1.25.126 1.667 1.085 1.708 1.294.667 1.002.125.376.75.083 1 1.044.417.376.458.209.667 1.586 1.375.25.791-.292 1.25-.71 1.542-.25 1-.877.667-.668.208-2.38.625-.667 2 .334.75.71.625-.084 1.459-.793.583-.292.75v1l-.585.167-.71.583-.208.709.167.708-.543.417-.96-1.125-.585-1.167-3.465.333-4.175.25-20.54.5-.668-1.792-.167-2.791-.584-1.75-.292-2.167-.919-1.542-.417-1.917-1.127-3.25-.46-2.333-.584-.792-.543-1.208.71-1.584.5-2.541-1.126-.917-.125-1 .292-1 .751-.125 25.508-.25 8.85-.292z"/>
            <path fill="#BFE673" d="M69.184 9.122l-1.991 7.244-1.867 8.68-1.41 6.75-.166 4.024.498 1.848 1.452 1.107-.083 1.627-1.618 1.831-1.866 2.746-.374 1.207-.497.458-.747.333-1.783 2.205-.166 1.29-.166.458.249.416 1.078-.041.456.957-.995 2.413-.498 1.748-3.65 14.69 8.586 1.872 16.383 3.287 14.434 2.539 2.032-12.151 1.577-10.029-1.12-.999-.166-1.082-.332-.457-.871.416-.29 1.082-1.328.208-1.617-.666-1.576.042-1.037.291-1.41-.624-.996.083-.995.832-.83-.457-.29-1.665.29-1.207-1.037-1.207-1.369-1.082-1.12-5.45-.041-1.957-.124-.041-.083.166-2.116 1.457-.705-.084-1.203-1.414-.083-1.29 2.904-7.129-.166-.807-1.41-.479-.25-.49-1.078-1.44-1.907-4.257-1.328-.637-.83-2.06.54-1.927-1.327-3.154 1.825-8.955z"/>
            <path fill="#FFD966" d="M253.36 87.019l-.33-1.083-.537-1.542-.661-.75-.62-1.083-.165-2.29-6.57.75-7.191.416h-5.083l.082.874.91.375.454.584.165.583 1.612 1.416.29 1-.29 1.374-.702 1.542-.331 1.125-.992.791-.785.25-2.149.541-.537 1.708.248.459.785.75-.083 1.79-.867.667-.207.542v1.166l-.744.25-.579.5-.165.5.165.833-.66.541-.373 1.167.124 1.624.95 2.916 2.894 3.166 2.355 1.542v1.833l.29.5 2.727.25 1.115.583-.289 1.458-.909 2.582-.33 1.25.826 1.541 2.645 2.208 1.983.333.91 2.125.826 1.416-.372 1.166.62 1.583.702.875.662-.125.413-.916.992-.708 1.157-.417 2.52 1.041.207-.083v-.458l-.496-1.125.166-1.166.991-.667 1.405-.5-.206-.541-.33-.833.495-.542.413-1.124v-1.667l.166-2.04 1.033-1.25.744-1.584 1.033-1.666-.207-2.208-.744-1.333-.124-1.374.33-2.208-.288-3-.455-6.581-.579-6.374-.371-4.873z"/>
            <path fill="#FFB3B3" d="M255.122 87.485l.625.418.459-.125.875-.796 1.042-.754 5.96-.46 7.669-.754.667 6.491 2.042 17.843-.25 1.214.542.67.083.545-.959.67-1.5.712-1.334.167-.208 2.01-1.959 1.509-1.209 1.675.084 1.005-.209.586h-1.458l-.584-.712-2.167 1.257.083 1.298-.375.084-.208-.377-1-.712-1.501.628-.583 1.215-.5-.251-.667-.754-1.834.21-2.376.418-1.042.544v-1.088l.167-1.969.958-1.215.75-1.633 1.126-1.76-.208-2.428-.75-1.299-.126-1.34.334-2.22-.292-2.973-.375-5.278-1.042-12.606z"/>
            <path fill="#BFE673" d="M198.362 105.838l-18.25-.25-16.916-.498-9.042-.374-1.791 26.922 10.124.416 18.625.872 19.291.25 5.25-.125.292-14.541-.5-4.612-1.042-.83-1-1.247-.958-1.496.25-1.246.708-.582v-.873l-.333-.29-1.084-.083-1.458-1.413z"/>
            <path fill="#FFD966" d="M248.831 135.647l5.238-.29.041-1.702h1.788l12.636-1.327 18.746-1.784 2.328-1.494 1.621-.871.042-.788 2.493-3.236 1.705-1.494.873-.996-1.372-.83-1.04-1.12-1.246-1.576-.208-.913-1.08-.58-.375-.789-.083-2.53-1.08-.83-.79-.457-.208-.954-.54.083-.832.498-1.04 1.12-.789-.705-1.04-.208-.997.581h-.956l-.748-.83-2.328-.041-.748-1.867-1.205-.622-.873.331-1.746.083-.208.872.5.622.124.871-1.164.83-1.58.747-1.08.166-.208 1.867-2.037 1.493-1.08 1.535.083.913-.375.954-1.87-.041-.54-.54-1.621.913.083 1.37-.998.248-.332-.58-.707-.498-1.122.456-.749 1.452-.914-.415-.582-.664-1.538.166-2.328.415-1.163.54-.5 1.41-.415.415.624 1.535-1.746.58-.79.582-.166.912.499.996v.913l-.666.166-2.535-1.037-.956.373-.831.58-.333.748.707.995-.374.747-.042 1.37-.998.538-.872.706z"/>
            <path fill="#BFE673" d="M215.312 200.076l3.354-.125 4.265 1.5 2.69.458 1.533-.625 1.325.458 1.325.417.331-.875-1.325-.458-1.076.208-1.118-.666.33-.625 1.284-.417.746.625.745-.417 1.325.25.62 1 .125.958 1.863.125.746.75-.332.667-.538.333.663.667 3.478 1.5 1.49-.542.414-1 1.077-.25.745-.625.538.417.331 1.208-.952.333.249.25 1.407-.541.953-1.417.33-.208-.869-.125.332-.667-.083-.625.87-.208.455-.541.248.333.249 1.291 1.738.25 1.657.792.414.625h1.2l.456.417.952-1.292v-.625h-.538l-1.408-1.125-2.401-.333-1.325-.958.455-1.125.953.125.082-.25-.745-.417v-.208h1.325l.745-1.292-.538-.791-.124-1.125-.621.083-.787.875-.248 1.083-1.284-.25-.414-.75.745-.791.787-.709-.91-2.708-1.409-1.416.414-3.042-.082-.208-.539.083-13.704.584-.332-1 .332-3.541 3.56-6.167-.372-1.083.58-.166.165-.834-.91-.833.04-.792-.828-1.874-.165-2.125.041-.292-10.93.333-10.434.042.165 4.041.29 3.958.207 1.542 1.077 1.875.372 1.833 1.78 2.5.125 1.291.248.334-.29 3.458-1.159 1.916.497 1-.207 1.083-.331 3.042-.538 1.25.082 1.54zM365.387 69.5l-.208-.952.332-.622 1.204-.62.331 1.283-.207.745-.996.622v.414l.789-.621 1.618-1.864 1.618-.787 1.742-.621-.124-.994-.415-1.2-.788-.995-.747-.33-.872.082-.207.207.415.538.622-.331.872.663.331 1.118-.746.745-.955.414-1.493-.207-1.618-2.485-.954-1.076h-.747l-.457.331-.788-1.077.125-.62.995-2.154-1.203-1.822-1.535.745-.747 1.201-7.592 1.946-5.725 1.036-.25 4.39.291 2.028 9.127-1.987 4.647-1.16.83.663 1.41 1.78 1.204 1.947.87-.373zm5.186.58l.913-.29.207-.704.415.041.415.953-.54.207-1.617.041.207-.248zm-3.9.331l.954-1.077h.664l.747.622-.996.414-.913.414-.456-.373z"/>
            <path fill="#E3E3E3" d="M343.538 107.537l.71-1.575.208-1.989-2.628.456-2.42.124-1.586-6.962-.96-2.28-.625-1.906-9.263 1.782-15.688 3.15.835 4.31 2.002-2.03 1.044-.29.584-.622.75-1.12.668.29 1.085-.082 1.085-.87.834-.622.876-.249.626.456 1.127.58.793.746.542.58 2.003.663-.25 1.202 2.42.87.875-1.077 1.544 1.036-.876 1.368-.292 1.367-.751 1.078v.87l.125.332.835.538 1.418.456 1.794-.041 1.294.414.876.124.417-.87-.626-.87v-.746l-1.001-.87-.876-2.28.542-2.196-.083-.87-.543-.539s.626-.663.626-.953c0-.249.209-.87.209-.87l.792-.54.793-.662.209.414-.626.663-.542 1.534.125.455.75.125.21 2.279-.877.414.125 1.492.209-.083.459-.787.667.746-.667.539-.125 1.409 1.085 1.409 1.627.207.667-.332 1.335 1.741.418.166 3.087-1.202zm-6.05.083l.46 1.036.083.746.459.787s.375-.373.375-.497-.292-1.285-.292-1.285l-.292-.953-.793.166z"/>
            <path fill="#BFE673" d="M356.298 35.802l.626.167v-1.088l.334-2.304 1.085-1.968.625-1.675-.792-1.005v-2.512l.333-.419.334-1.13-.083-.629-.084-2.01.751-2.01 1.21-3.727.877-1.759h.542l.542.084v.46l.543.964 1.126.251.334-.335v-.419l1.67-1.214.75-.754.626.084 2.503 1.005.793.419 3.797 12.52h2.503l.334.796.084 2.01 1.21.963h.334l.083-.209-.209-.46 1.169-.21.792.88.96 1.549v.795l-.876 1.969-.793.25-1.419 1.299-2.002 2.303h-.543c-.25 0-.417-.88-.417-.88l-.751.085-.417.628-1.002.628-.417.628.668.628-.209.251-.208 1.131-.793-.084v-.67l-.125-.544-.626.125-.751-1.34-.876.545.542.628.125.46-.334.545.125 1.298.084.67-.668 1.089-1.21.21-.125 1.214-2.211 1.298-.543.21-.667-.629-1.294 1.508.418 1.34-.626.544-.084 1.843-.459 2.638-.918-.377-.208-1.298-1.67-.46-.083-1.048-4.881-15.674.542-.071zm15.23 6.533l.625-.629.584.461.25 1.005-.709.377-.75-1.214zm2.795-2.471l.75.795s.543.042.543-.083c0-.126.084-.838.084-.838l.375-.335-.334-.754-.834.294-.584.92zM264.161 85.326l7.93-.793.084.46 4.11-.627 4.983-.709.042-.25.083-.626.872-1.544.83-.709-.083-2.128.664-.667.457-.125.083-1.502.623-1.252.457.25.083.25.332.084.789-.417-.166-3.797-1.329-3.421-.955-3.797-.996-1.335-1.08-.75-.664.458-1.62.751-.789 2.086-1.12 1.544-.457.25-.623-.25s-1.08-.626-.997-.876c.083-.25.208-2.086.208-2.086l1.412-.543.332-1.418.249-1.085.996-.668-.124-4.172-.664-.96-.54-.333-.332-.876.332-.334.664.125.083-.667-1.08-.918-.54-1.085h-1.079l-1.868-.626-2.284-1.418h-1.121l-.25.25-.415-.209-1.287-.96-1.204.752-1.204.96.125 1.501.415.125.872.21.207.333-1.08.334-1.079.125-.623.75-.124.877.124.667.125 2.295-1.495.876-.249-.083V55.87l.54-1.002.249-1.001-.332-.334-.79.334-.414 1.752-1.121.46-.748.792-.083.417.25.334-.25 1.085-.955.208v.46l.332 1-.456 2.546-.665 1.668.25 1.961.207.46-.332 1-.125.334-.124 1.127 1.494 2.503 1.205 2.712.622 2.003-.332 1.96-.415 2.504-.997 2.17-.124 1.126-1.329 1.293 5.398-.417zM250.334 55.12l-.54-.46-.747-4.338-1.536-.543-.706-.96-5.232-1.168-1.163-.459-3.363-.917-3.239-.418-1.62-2.21.292-.21 1.12-.333 1.495-.96v-.417l.25-.25 2.491-.418.996-.792 1.827-.876.084-.543.788-1.21.748-.334.54-.75.955-.96 1.827-1.001 1.951-.21.457.46-.125.417-1.536.417-.623 1.294-.955.333-.207 1.002-.997 1.335-.125 1.085.333.208.415-.459 1.495-1.21.54.543h.954l1.33.417.622.459.623 1.293 1.12 1.127 1.62-.084.623-.417.664.542.665.21.54-.335h.456l.665-.417 1.66-1.502 1.412-.459 2.74-.125 1.87-.793 1.079-.542.623.083v2.378l.207.126 1.205.333.788-.208 2.533-.668.457-.459.623.209v2.92l1.329 1.294.54.25.54.417-.54.126-.333-.126-1.536-.208-.872.25-.955-.083-1.329.625h-.747l-2.409-.542-2.159.084-.789 1.084-2.906.25-.997.334-.456 1.294-.54.459-.208-.084-.623-.667-1.868 1.001h-.25l-.456-.668-.332.084-.79 1.836-.414 1.669-1.33 2.878-.539-.333zm-12.29-23.573l.747-.876.913-.334 2.243-1.627.955-.25.207.208-2.117 2.128-1.37.793-.873.375-.705-.417zm35.792 13.392l.249 1.044 1.329.083.54-.5s-.042-.627-.167-.668c-.124-.084-.664-.793-.664-.793l-.914.084-.664.083-.125.459.416.208z"/>
            <path fill="#FFB3B3" d="M189.564 25.497l-.25 1.631v4.284l.667 2.098.792 1.385.209 4.143.75 5.61.75 3.046.168 2.67v2.21l-.668.751-.75.542v.626l.375.71 1.71 1.46.292 1.334v14.976l25.147-.25 8.84-.292-.208-2.503-.75-.876-3.003-1.92-1.501-2.21-1.418-.375-.834-1.169h-1.335l-1.46-1.585-.208-2.92.042-1.627.625-1.251-.292-1.126-1.167-1.294.917-2.544 2.252-1.669.5-.584-.083-3.337.084-1.251 1.084-1.252 1.585-1.21.542-.083 1.876-2.086.751-.334.96-1.626 1-1.502 1.293-1.085 2.002-.834 3.836-1.71 1.627-.751.25-.96-1.835.167-.292.459h-.25l-.75-1.293-3.712.125-.417.334h-.417l-.209-.543-.334-.75-1.084.208-1.334 1.335-.668.334h-1.292l-1.085-.417v-.877l-.542-.083-.208.209-1.085-.543-.208-1.21-.626.21-.208.416-1.001-.208-2.21-1.001-1.627-1.085h-1.21l-.541-.417-.96.25-.458.459-.125.542h-2.002v-.876l-2.627-.125-.125-.626h-2.002l-.667-.667-.626-2.545-.334-2.294-.792-.334-.96-.208-.25.083-.124 3.42-12.553-.012z"/>
            <path fill="#FFD966" d="M243.009 138.544l.208-2.451 1.744-1.413.788-.415v-1.205l.291-.665-.457-.664-.996.124-.872-1.038-.706-1.87.374-1.08-.83-1.33-.748-1.91-1.91-.291-2.824-2.327-.913-1.744.332-1.371.914-2.493.249-1.246-.79-.416-2.864-.25-.457-.788v-1.704l-2.2-1.454-2.99-3.24-.955-3.033-.208-1.745.29-.997-1.079-1.288-.498-.997-3.197.333-4.152.249-20.263.498.54 1.08-.042.915.955 1.495 1.246 1.62 1.287 1.247 1.08.083.581.457v1.204l-.747.665-.208.956.872 1.33.997 1.245 1.08.873.539 4.819-.332 16.618.207 2.368 9.84-.084 9.676-.29 13.494-.54.914 1.537-.333 1.288-1.287 1.038-.207.748 2.159.208 1.702-.457zM247.404 194.504l1.08-1.751.749.333 2.826-.792.872.125.624.334h2.16l.167-.667-.707-6.172-1.163-7.922.415-18.807-.083-6.963.083-2.627-1.994.125-8.145.667-5.403.167-.083 1.334-1.163.542-1.08 2.127.207.667.042 1-1.206.46-1.454 2.126.332.96-1.246 1.042-.416 2.376-.25.793.666 1.042-.624.584.624 1.168.124 1.75-.498 1.043-.083.376.166 2.085.831 1.876-.042.709.956.834-.29 1.293-.375.125.25.792-3.574 6.255-.333 3.419.208.626 10.057-.292 3.407-.292.79-.125.25.583-.416 2.961 1.371 1.376.914 2.669zM146.52 27.073l-2.203 23.862-.54 6.349-24.571-2.757-20.372-2.965-.582 4.678-.79-.71-.166-1.045-.54-.793-1.373.626-.29 1.044-.957.126-1.58-.668-1.704.041-.998.293-1.33-.627-1.248.084-.873.793-.374-.25-.291-1.42.29-1.337-1.122-1.337-1.372-1.044-1.039-5.262-.042-2.214-.665-.334-.25.417-1.87 1.337-.499-.042-.956-1.17-.083-1.169 2.91-7.163-.25-1.115-1.455-.468-.166-.38-1.123-1.462-1.912-4.348-1.33-.66-.749-1.779.54-1.934-1.33-3.162 1.83-8.892 13.595 2.878 7.65 1.42 13.428 2.214 12.182 1.67 12.14 1.462 12.805 1.283z"/>
            <path fill="#BFE673" d="M323.362 146.51l-5.267-3.2-1.286-.333-6.883.873-.664-1.247-1.161-.914-6.925.208-3.07.374-3.814 1.87-2.82 1.122-2.696.499-5.557.582.042-1.704.705-.54 1.12-.291.29-1.58 1.617-1.039 1.617-.623 1.867-1.538 1.824-.956.29-1.33 1.7-1.579.291.416 1.037.083.995-1.496.705-.167 1.078.125.747-1.662 1.036-.998.208-.748.041-1.454 1.825.041 15.965-2.327 23.845-5.112.83 1.995 1.492 2.701.996.998.248.955-.995.084.332.249-.124 1.745-1.079.54-.248.874-.54 1.205-1.534.665-.995-.125-.622-.083-.664-.54.125.54v.416h.788l.331.54-.788 2.618h1.742l.249.665.954-.956.539-.208-.788 1.497-1.286 1.994h-.539l-.456-.207-1.12.249-2.156.997-2.695 2.203-1.41 1.953-.788 2.702-.208.997-1.949.208-2.115.623-4.23-3.449zm20.444-10.889l1.078-1.039 1.327-1.08.622-.25.083-.83-.249-2.536-.622-.956-.249-.79.29-.083 1.12 2.286.166 1.829-.083 1.413-1.41.623-1.16.998-.457.498-.456-.083z"/>
            <path fill="#E3E3E3" d="M192.094 50.216l-.167-2.582-.75-3.04-.75-5.669-.209-4.04-.792-1.324-.667-2.216V27.01l.25-1.604-.75-2.307-11.919-.246-7.752-.25-11.044-.541-10.502-.9-.375 6.006-1.959 21.216 23.672 1.624 23.714.708z"/>
            <path fill="#FFD966" d="M191.772 82.811l-.415-.958-.208-.667-1.203-.667-1.992-.625-.913-.5-1.079.041-1.535.167-1.743.5-2.49-1.71-.913-.833-4.44.25-17.22-1-14.774-.917-1.784 18.216 13.735 1.375-.58 8.796 9.004.417 16.848.5 18.175.25h1.868l-.913-1.25-1.08-1.626.042-.959-.58-1.125-.79-2.168-.165-2.793-.581-1.709-.208-2.084-.954-1.542-.415-1.96-1.162-3.293-.415-2.209z"/>
            <path fill="#FFB3B3" d="M362.949 56.264l.461-1.337-1.133-.502-.21-1.295-1.72-.46-.125-1.253-4.91-15.66-.293.033-.252.669-.252-.21-.42-.417-.629.794-.083.957.21 3.514.796 1.17v1.796l-1.636 2.006-1.007.376v.292l.462.794v3.594l-.336 3.844-.084 1.963.42.585-.084 1.964-.21.627.42.46 2.14-.502 5.79-1.462.713-1.212 1.678-.794zM338.716 92.708l.042-.628 1.121-.545.706-1.173.706-1.005 1.37-1.34v-.503l-2.533-1.718-.415-1.131-1.121-.126-.042-.377-.29-.921.913-.461.083-1.215-.54-.545.083-.502.79-1.3V77.92l1.038-1.298 2.325 1.047 2.658.796 1.038.503.041.754-.207 1.13.166 1.886-.872.796-.457.419.208.21 1.12-.127.458-.335.664 1.425.083 3.938.25.46-.458 2.304-1.287 2.723-1.121 1.676-.332 2.01-.872 1.006h-.333l-.124-1.13.332-.42-.083-.628-1.661-.251-1.993-.964-1.33-1.215-.414-.838z"/>
            <path fill="#FFD966" d="M108.44 176.59l-6.955-1.086-.5 4.01-6.579-.836 2.499-16.58 2.915-22.22 1.832-12.905 14.158 1.629 15.573 1.837 13.325 1.17-.125 4.51-.583-.041-3.081 40.804-11.826-.751-15.865-1.546.291 2.631z"/>
            <path fill="#BFE673" d="M47.323 70l15.953 3.529 10.718 2.158-4.37 22.045-2.225 12.372-1.36 6.434-.866 4.609-1.072 6.808-.7 1.287-.66-.041-.495-1.08-1.154-.207-.536-.457-.742.042-.371.332-.742.54-.124 3.03-.124.623-.206 5.148-.453.747-6.884-10.587-17.355-25.78-5.124-7.889 3.525-13.534 3.302-12.994z"/>
            <path fill="#FFB3B3" d="M346.968 81.066l.209-1.13-.084-1.006-1.25-.628-2.706-.837-2.5-1.089-.25-.167-1.124-.126-.833-.628-.874-2.47-1.375-.21-1-1.004-15.993 3.391-13.161 2.512-.208-2.721.666-.503.542-.46.416-.67.75-.46.791-.754.208-.67.875-1.13.458-.42-.083-.418-.542-1.298-.75-.084-.79-2.554 1.207-.754 1.833-.628 1.666-.544 1.332-.21 2.624-.083.792.544.666.084.875-.544 1.083-.46 2.165-.21.875-.754.75-1.34.666-.795h.875l.791-.46.083-.964-.624-.879-.125-.628.458-.88V55.4h-.75l-.75-.335-.333-.46-.083-1.09 2.416-2.302.25-.335.624-1.215 1.208-1.884 1.125-1.549.874-1.005 1-.753 1.291-.503 2.29-.544 1.333.084 1.875-.628 3.082-.922.291 2.052 1 2.722.333 2.093-.416 1.759 1.082 1.884.334.837-.375 1.34 1.54.712 1.125 4.27v2.429l-.25 4.564.334 2.26.291 1.508.625 3.057v3.391l-.458.963.874 1.13.209.377-.792.754.125.544.542-.125.625-.545.957-1.088.459-.252.666.252.958.083 3.29-1.632 1.208-1.131.541-.628 1.75.67-1.416 1.507-1.625 1.214-2.957 2.22-1.083.418-2.415.796-1.666.46-.417-.167z"/>
            <path fill="#E3E3E3" d="M272.284 85.42l.709 6.482 2 17.19 1.625-.083.959-.334 1.5.752.708 1.757 2.25.042.75.836h.71l1-.585 1.291.209.625.544.75-.837.959-.585 1-.168.25 1.13.667.418 1.083.836.333.084.834-.042.5-.25v-.879l.708-.627.042-2.008.458-1.757.792-.543.417.292.417.46.291.084.167-.167-.375-1.13v-.92l.458-.585 1.042-1.506.542-.627.917.209.875-.628 1.25-1.38.917-1.548.083-2.258.208-2.091v-1.924l-.5-1.339.5-.753.542-.502-.25-1.17-1.792-10.708-2.583 1.547-1.626.962-1.416 1.548-1.667 1.631-1.334.335-1.208.209-2.292 1.087-.875.084-1.417-1.297-2.167.251-1.084-.627-.916-.544zM167.485 137.168l-.747 10.114-.374 7.491.083.666 1.66 1.499.706.374h.373l.374-.874.623.791.664.042.124-.084.083-.457 1.162.582-.166 1.457 1.577.208 1.038.416 1.743.25.955.666 1.037-.708 1.453.292.913 1.29.498.041v.958l.872.291 1.037-.874.747.25 1.121.041.29.958 1.827.749.705-.125.789-1.748h.54l.456.874 1.743.333 1.411.54 1.245.334.664-.291.291-1.124h1.868l.788.374 1.12-.79h.582l.249.582h1.494l.83-.749.955.25.705.916 1.245.707 1.412.375.788.5-.124-15.65-.581-4.536-.042-3.58-.622-2.747-.25-2.83.042-1.79-5.23.125-19.216-.208-18.552-.874-17.224-.749-.166 4.454z"/>
            <path fill="#FFD966" d="M24.399 63.906l11.716 2.997 11.417 2.705 7.052 1.54 3.651-14.61.498-1.832.996-2.29-.29-.54-1.038.041-.54-.75.25-.624.166-1.373 1.95-2.373.788-.375.373-.333.29-1.124.332-.457 1.618-2.373 1.535-1.665.083-1.357-1.41-1.037-.498-1.894-5.435-1.594-6.347-1.445-6.14.154-.457-.545-2.115.766-1.867-.2-.996-.657-.54.224-1.94-.12-.814-.596-2.008-.736-.456-.03-1.846-.528-.73.632-2.597-.1-2.203-1.602.087-3.863-.85-1.457-1.702-.25-.29-1.04-.996-.209-2.406.875-.954 2.705-1.328 4.163-1.327 2.706-2.075 5.87-2.696 5.66-3.36 5.245-.789 1.208-.332 3.58-.539 2.497 1.124 1.457zM302.464 77.794l.542-.207 2.373-2.278.291 2.858 13.949-2.693 15.364-3.23.957.952 1.291.166.833 2.32 1 .786 1.165.166.042.042L339.188 78v1.284l-.791 1.284-.083.787.54.539-.082.787-1 .456.417 1.408.083.456 1.166.124.375 1.035 2.456 1.616v.166l-1.29 1.242-.625.912-.708 1.16-1.124.497-.583.124-.875.538-.666.58-9.326 1.781-16.114 3.231-4.705.58-1.624.29-2.123-9.278-1.79-10.729zM359.651 70.925l-.326-1.806-.653-2.463 2.326-.615.612.533 1.387 1.765 1.142 1.806-1.142.575-.53-.082-.45.739-.979.78-1.142.451zM311.797 170.027l-.876-.416-.794-2.332-1.043-.958-1.044-.208-.626-1.915-1.252-2.706-1.753-.75-.793-.75-.5-1.082-1.003-.833-.96-.54-.918-1.208-1.336-1-1.836-.707-.167-.583-.96-1.166-.209-.625-1.586-2.248-1.42.042-1.627-1.041-.501-.5-.083-.583.25-.666 1.127-.541-.334-.833 2.671-1.124 3.84-1.874 2.964-.375 6.845-.208.96.791.752 1.458 1.92-.333 5.26-.625 1.126.333 5.218 3.081 4.215 3.456-2.212 2.248-1.085 2.54-.209 2.623-.668.333-.459 1.125-1.002.25-.876 1.498-1.127 1.124-.96 1.416-.668.333-1.503 1.416-1.21.083.417 1.332-2.087 2.207-.96.666z"/>
            <path fill="#E3E3E3" d="M192.23 73.18l-.375 1.337.166 1.254 1.083.836-.5 2.257-.75 1.714.625 1.38.292.46-.542.041-.291-.668-.25-.836-1.374-.753-1.999-.627-1.04-.543-1.208.041-1.624.168-1.583.501-2.207-1.588-1.124-1.003-4.539.334-17.28-1.003-14.825-.92.625-10.367 1.166-14.213.167-2.09 23.693 1.63 23.693.71v1.13l-.541.627-.833.627-.041.92.458.919 1.707 1.421.208 1.129v15.007z"/>
            <path fill="#BFE673" d="M275.184 147.267l-5.451.497-9.696.911-15.647 1.119-4.911.165.375-.248.374-1.864-.5-1.492 1.624-.953.166-1.035.5-1.782 1.248-3.936.208-2.32.125-.083 5.118-.082 5.66-.332.042-1.616 1.456-.04 12.651-1.368 22.472-2.154 4.286-.622 3.163-.083.999-.787.54.124-.041 1.368-.166.662-1 .912-.665 1.491-.832-.165-1 .372-.915 1.368-.582-.083-.333-.497-.458.165-1.79 1.658-.332 1.284-1.748.911-1.79 1.492-1.58.621-1.832 1.16-.25 1.492-1.04.207-.832.704-.083 1.989z"/>
            <path fill="#FFB3B3" d="M114.09 174.874l15.367 1.5 12.17.791 3.073-40.706 22.594 1-.706 9.708-.415 7.5.083.833 1.827 1.708.83.458h.748l.208-.5.29.375.998.084.456-.25v-.084l.416.209-.166 1.541 1.869.292.996.375 1.745.292 1.08.75 1.163-.792 1.121.25.914 1.291.332.042v.875l1.37.458 1.039-.875.623.209.872.041.25.875 2.159.834.955-.209.79-1.666h.041l.457.791 1.91.375 1.413.542 1.329.417.996-.5.291-.959h1.495l.873.417 1.246-.833h.166l.207.583h1.952l.79-.75.54.167.706.875 1.37.791 1.412.417 1.039.583 1.121.833 1.288-.5.872.334.29 8.333.291 3.958.25 1.708 1.08 1.833.373 1.875 1.744 2.458.125 1.292.25.333-.291 3.208-1.205 2 .54 1.083-.208 1-.332 3-.54 1.25.125 1.75-2.326.666-4.112 1.875-.415.792-1.08.791-.872.625-.54.334-2.368 2.208-1.121.875-2.201 1.333-2.368 1-2.616 1.417-.748.625-2.409 1.5-1.412.25-1.62 2.291-1.661.125-.415.792.955.791-.623 2.292-.54 1.875-.457 1.624-.332 1.875.332 1 .748 2.917.415 2.541.748 1.125-.416.625-1.287.792-2.368-1.625-2.284-.458-.54.208-1.33-.25-1.743-1.292-2.16-.458-3.157-1.417-.872-1.624-.54-2.709-1.329-.791-.25-.959.25-.25.125-1.416-.54-.25-.25-.417.54-1.833-.664-.958-1.33-.542-1.411-1.833-1.495-2.75-1.745-1.083.083-.792-2.201-5.124-.332-1.75-.748-.792-.083-.625-2.492-2.208-1.08-1.292v-.458l-1.08-.875-2.824-.458-3.073-.25-1.288-.958-1.869.75-1.495.625-.955 1.333-.416 1.541-1.827 2.542-.997 1-1.08-.417-.748-.458-.789-.25-1.62-.958v-.25l-.747-.792-2.16-.875-3.073-3.25-.956-1.958v-3.375l-1.329-2.708-.207-1.125-.665-.416-.457-.875-2.076-.875-.54-.667-2.95-3.291-.54-1.334-1.951-.958-.623-1.833-1.08-1.208-.706-.209-.25-2.25zm72.434 59.037l-.25-2.958-1.12-3-.25-2.916.623-3.417 1.37-2.874 1.454-2.25 1.33-1.5.249.083-1.994 2.75-1.827 2.708-.831 2.75-.125 2.166.374 2.542 1.08 3 .208 2.166.083.625-.374.125z"/>
            <path fill="#BFE673" d="M91.18 125.112l10.232 1.496.79-5.695 2.912-20.993.957-9.146-13.393-1.455.915-5.446.748-4.406-14.432-2.536-5.2-1.04-4.408 21.992-2.246 12.471-1.373 6.402-.707 3.824z"/>
            <path fill="#FFB3B3" d="M343.363 108.165l-.083 1.165-1.203 1.58-.166 1.913.207 1.414-.746 2.08-.913.79-.622-1.914.166-2.245.664-1.747.29-1.372-.042-.707 2.448-.957zm-25.011 18.548l-16.01 2.328-1.991-.041-.913-.125-1.037.79-3.027.042-4.273.665-2.778.25 1.7-1.082 1.7-.956v-.873l2.365-3.036 1.7-1.539.913-1.04 1.493 1.789 1.576.374 1.12-.416.83-.624.995.5 1.908-.541.705-1.83.996.291 1.327-.956.663.166 1.162-1.33.083-1.124-.332-.499 1.99-4.366.747-2.163.208-1.954.29-.083.456.707.623.499 1.617-.083.705-3.369 1.245-.25.331-1.08 1.162-.916.456-.873.747-1.788.041-1.913 1.493.582 2.738 1.29.124-2.163 1.41.499-.248 1.206 3.567 1.29.58.748-.332 1.372-.539.54-.207.708.207.998.83.54 1.617.582 1.203.416 2.033.375.912.873 1.327.166.374.5-.166 1.954.58.457-.207.79.498.333-.083.582-1.12-.041.041.665.954.624.042.582.746.749.208 1.04-1.079.581.664.624 2.406-.707 1.534 2.579-23.6 5.115z"/>
            <path fill="#BFE673" d="M342.558 43.912l.989 2.708.33 2.208-.413 1.625 1.03 1.834.372.958-.289 1.084 1.36.625 1.196 4.5v2.208l4.74-.875-.413-.458.248-.792.082-1.792-.412-.583.082-1.958.33-3.876v-3.541l-.453-.75v-.667l1.154-.458 1.442-1.834v-1.5l-.783-1.125-.124-2.412-10.757 2.829zM27.167 25.581l-.953-1.794-1.699-.293-.166-1.001-1.036-.25-1.202-.21-.746.418-.953-1.21.125-1.21 1.118-.125.664-1.67-1.078-.459.083-1.544 1.823-.25-1.119-1.127-.621-2.963.248-1.21V7.386l-.745-1.335.953-3.923.87.209.995 1.21 1.119 1.085 1.326.793 1.865.876 1.284.25 1.202.627 1.41.417.952-.083V6.51l.54-.459.87-.543.124.46.124.75-.953.21-.124.876.745.626.456 1.001.249.793.622-.083.083-.543-.415-.542L35 7.72l.331-.751-.248-.626V5.258l.746-1.502-.456-1.085-.995-2.003.125-.334.58-.334 1.823.626 4.02 1.127 3.564.793 8.289 2.378 9.531 2.379 6.217 1.456-1.99 7.328-1.864 8.693-1.41 6.781-.165 3.83-5.346-1.551-6.34-1.449-6.01.134-.456-.638-2.362.872-1.616-.176-1.078-.747-.704.272-1.72-.105-.713-.55-2.139-.76-.489-.067-1.989-.58-.795.689-2.342-.105-1.91-1.398.078-3.651zm3.979-23.119l.829-.083.207.584.621-.668h.954l.331.626-.621.71.248.333-.29.835-.58.167s-.373.042-.373-.083c0-.126.622-1.085.622-1.085l-.705-.25-.124.625-.29.25-.622-.96-.207-1z"/>
            <path fill="#E3E3E3" d="M221.492 43.37l1.203.21 1.203-.251 3.069-1.337 1.203-.793.87-.334.789.626-.456.46-.788 1.294-.25.794.415.25.747-.417.456-.084 1.12.334.249.46.456.083.249-.459 1.659 2.213 3.401.502 3.401.918 1.078.46 5.102 1.086.663.96 1.494.501.705 4.26.663.585.622.376-.456.96-.746.669-.871 1.963-.54 1.002.083.752.622.125.457-.794.622-.334.332-.96.788-.752 1.12-1.67 1.741-2.632.332-.208.125.417-.083.96-1.203 2.84-1.12 2.381-.207 1.337-.25 1.086.333.542-.083 1.128-.788 1.002-.208.752.25 1.504.248 1.42-.622 1.086-.332 1.21-.415 1.295.457 1.003.248 2.547.664 1.88-.083 1.253-6.594.751-7.259.418h-5.267l-.29-.626-1.203-.168-1.078-.542-.954-1.546-.125-1.503.83-1.211-.208-.585-.87-.919-.333-1.378-.248-2.84-.871-1.044-2.904-1.88-1.576-2.255-1.41-.417-.912-1.17h-1.327l-1.203-1.378-.208-2.715.042-1.587.622-1.294-.332-1.337-1.037-1.17.747-2.254 2.157-1.587.663-.794-.083-3.383.083-1.17.996-1.169z"/>
            <path fill="#FFB3B3" d="M311.758 103.456l2.41-2.498 1.08-.333.664-.624.623-.916.457.125 1.288-.084 1.91-1.498.623-.209.54.417 1.08.5 1.246 1.248-.166 1.79-2.243-1.082-1.994-.75-.041 2.457-1.08 2.373-1.205 1-.332.957-1.246.208-.706 3.372-1.163.083-.457-.416-.499-.833-.914.208-.207 2.124-.748 2.123-2.077 4.58.374.582-.041.833-.914 1.04-.665-.166-1.288.958-1.163-.333-.747 2.04-1.579.416-1.038-.541-1.039.79-.955.292-1.33-.333-1.578-1.873-1.453-.916-1.039-1.041-1.204-1.54-.208-.958-1.163-.708-.25-.54-.082-2.332.124.041.997-.083.748-.416v-.916l.706-.625.041-2.164.374-1.5.457-.29.166.124.416.458.706.208.457-.54-.416-1.291v-.667l1.288-1.915.498-.54.831.207 1.08-.75 1.288-1.415.997-1.706.083-2.332.208-1.998v-2.04l-.457-1.25.373-.54.333-.292 1.786 8.035 1.786-.333 4.652-.541z"/>
            <path fill="#E3E3E3" d="M142.992 64.882l-.622 10.573-1.824 18.315-1.12-.125-34.543-3.788-11.57-1.248.83-4.996 2.86-17.066 1.577-10.074.539-4.662 19.988 2.914 24.508 2.705z"/>
            <g fill="#D3D3D3" transform="translate(327.324 100.338)">
                <path d="M2.415 2.93l-.458-.669-.417-.334.458-.668.916.626z"/>
                <ellipse cx="2.206" cy="2.094" stroke="#FFF" stroke-width=".507" rx="2.081" ry="2.087"/>
            </g>
        </g>
        <text fill="#000" font-family="HelveticaNeue-CondensedBold, Helvetica Neue" font-size="5.408" font-style="condensed" font-weight="bold" letter-spacing=".068" transform="translate(23 15)">
            <tspan x="0" y="101.434">C</tspan> <tspan x="2.972" y="101.434">A</tspan>
        </text>
        <text fill="#000" font-family="HelveticaNeue-CondensedBold, Helvetica Neue" font-size="5.408" font-style="condensed" font-weight="bold" letter-spacing=".068" transform="translate(23 15)">
            <tspan x="10.202" y="36.333">OR</tspan>
        </text>
        <text fill="#000" font-family="HelveticaNeue-CondensedBold, Helvetica Neue" font-size="5.408" font-style="condensed" font-weight="bold" letter-spacing=".068" transform="translate(23 15)">
            <tspan x="19.31" y="5.246">WA</tspan>
        </text>
        <text fill="#000" font-family="HelveticaNeue-CondensedBold, Helvetica Neue" font-size="5.408" font-style="condensed" font-weight="bold" letter-spacing=".068" transform="translate(23 15)">
            <tspan x="51.372" y="47.305">ID</tspan>
        </text>
        <text fill="#000" font-family="HelveticaNeue-CondensedBold, Helvetica Neue" font-size="5.408" font-style="condensed" font-weight="bold" letter-spacing=".068" transform="translate(23 15)">
            <tspan x="27.326" y="81.685">NV</tspan>
        </text>
        <text fill="#000" font-family="HelveticaNeue-CondensedBold, Helvetica Neue" font-size="5.408" font-style="condensed" font-weight="bold" letter-spacing=".068" transform="translate(23 15)">
            <tspan x="60.845" y="91.194">UT</tspan>
        </text>
        <text fill="#000" font-family="HelveticaNeue-CondensedBold, Helvetica Neue" font-size="5.408" font-style="condensed" font-weight="bold" letter-spacing=".068" transform="translate(23 15)">
            <tspan x="84.163" y="22.435">MT</tspan>
        </text>
        <text fill="#000" font-family="HelveticaNeue-CondensedBold, Helvetica Neue" font-size="5.408" font-style="condensed" font-weight="bold" letter-spacing=".068" transform="translate(23 15)">
            <tspan x="91.814" y="59.375">WY</tspan>
        </text>
        <text fill="#000" font-family="HelveticaNeue-CondensedBold, Helvetica Neue" font-size="5.408" font-style="condensed" font-weight="bold" letter-spacing=".068" transform="translate(23 15)">
            <tspan x="101.287" y="99.24">CO</tspan>
        </text>
        <text fill="#000" font-family="HelveticaNeue-CondensedBold, Helvetica Neue" font-size="5.408" font-style="condensed" font-weight="bold" letter-spacing=".068" transform="translate(23 15)">
            <tspan x="52.465" y="135.448">AZ</tspan>
        </text>
        <text fill="#000" font-family="HelveticaNeue-CondensedBold, Helvetica Neue" font-size="5.408" font-style="condensed" font-weight="bold" letter-spacing=".068" transform="translate(23 15)">
            <tspan x="94.365" y="139.471">NM</tspan>
        </text>
        <text fill="#000" font-family="HelveticaNeue-CondensedBold, Helvetica Neue" font-size="5.408" font-style="condensed" font-weight="bold" letter-spacing=".068" transform="translate(23 15)">
            <tspan x="144.644" y="170.924">TX</tspan>
        </text>
        <text fill="#000" font-family="HelveticaNeue-CondensedBold, Helvetica Neue" font-size="5.408" font-style="condensed" font-weight="bold" letter-spacing=".068" transform="translate(23 15)">
            <tspan x="157.031" y="133.985">OK</tspan>
        </text>
        <text fill="#000" font-family="HelveticaNeue-CondensedBold, Helvetica Neue" font-size="5.408" font-style="condensed" font-weight="bold" letter-spacing=".068" transform="translate(23 15)">
            <tspan x="153.024" y="106.189">KS</tspan>
        </text>
        <text fill="#000" font-family="HelveticaNeue-CondensedBold, Helvetica Neue" font-size="5.408" font-style="condensed" font-weight="bold" letter-spacing=".068" transform="translate(23 15)">
            <tspan x="143.551" y="77.662">NE</tspan>
        </text>
        <text fill="#000" font-family="HelveticaNeue-CondensedBold, Helvetica Neue" font-size="5.408" font-style="condensed" font-weight="bold" letter-spacing=".068" transform="translate(23 15)">
            <tspan x="142.458" y="51.329">SD</tspan>
        </text>
        <text fill="#000" font-family="HelveticaNeue-CondensedBold, Helvetica Neue" font-size="5.408" font-style="condensed" font-weight="bold" letter-spacing=".068" transform="translate(23 15)">
            <tspan x="142.458" y="23.898">ND</tspan>
        </text>
        <text fill="#000" font-family="HelveticaNeue-CondensedBold, Helvetica Neue" font-size="5.408" font-style="condensed" font-weight="bold" letter-spacing=".068" transform="translate(23 15)">
            <tspan x="178.892" y="38.162">MN</tspan>
        </text>
        <text fill="#000" font-family="HelveticaNeue-CondensedBold, Helvetica Neue" font-size="5.408" font-style="condensed" font-weight="bold" letter-spacing=".068" transform="translate(23 15)">
            <tspan x="210.225" y="49.5">WI</tspan>
        </text>
        <text fill="#000" font-family="HelveticaNeue-CondensedBold, Helvetica Neue" font-size="5.408" font-style="condensed" font-weight="bold" letter-spacing=".068" transform="translate(23 15)">
            <tspan x="187.636" y="72.907">IA</tspan>
        </text>
        <text fill="#000" font-family="HelveticaNeue-CondensedBold, Helvetica Neue" font-size="5.408" font-style="condensed" font-weight="bold" letter-spacing=".068" transform="translate(23 15)">
            <tspan x="216.783" y="87.902">IL</tspan>
        </text>
        <text fill="#000" font-family="HelveticaNeue-CondensedBold, Helvetica Neue" font-size="5.408" font-style="condensed" font-weight="bold" letter-spacing=".068" transform="translate(23 15)">
            <tspan x="193.83" y="108.383">MO</tspan>
        </text>
        <text fill="#000" font-family="HelveticaNeue-CondensedBold, Helvetica Neue" font-size="5.408" font-style="condensed" font-weight="bold" letter-spacing=".068" transform="translate(23 15)">
            <tspan x="196.745" y="139.471">AR</tspan>
        </text>
        <text fill="#000" font-family="HelveticaNeue-CondensedBold, Helvetica Neue" font-size="5.408" font-style="condensed" font-weight="bold" letter-spacing=".068" transform="translate(23 15)">
            <tspan x="197.109" y="172.387">LA</tspan>
        </text>
        <text fill="#000" font-family="HelveticaNeue-CondensedBold, Helvetica Neue" font-size="5.408" font-style="condensed" font-weight="bold" letter-spacing=".068" transform="translate(23 15)">
            <tspan x="241.194" y="155.563">AL</tspan>
        </text>
        <text fill="#000" font-family="HelveticaNeue-CondensedBold, Helvetica Neue" font-size="5.408" font-style="condensed" font-weight="bold" letter-spacing=".068" transform="translate(23 15)">
            <tspan x="218.241" y="158.123">MS</tspan>
        </text>
        <text fill="#000" font-family="HelveticaNeue-CondensedBold, Helvetica Neue" font-size="5.408" font-style="condensed" font-weight="bold" letter-spacing=".068" transform="translate(23 15)">
            <tspan x="240.101" y="128.133">TN</tspan>
        </text>
        <text fill="#000" font-family="HelveticaNeue-CondensedBold, Helvetica Neue" font-size="5.408" font-style="condensed" font-weight="bold" letter-spacing=".068" transform="translate(23 15)">
            <tspan x="249.938" y="110.578">KY</tspan>
        </text>
        <text fill="#000" font-family="HelveticaNeue-CondensedBold, Helvetica Neue" font-size="5.408" font-style="condensed" font-weight="bold" letter-spacing=".068" transform="translate(23 15)">
            <tspan x="239.008" y="89.731">IN</tspan>
        </text>
        <text fill="#000" font-family="HelveticaNeue-CondensedBold, Helvetica Neue" font-size="5.408" font-style="condensed" font-weight="bold" letter-spacing=".068" transform="translate(23 15)">
            <tspan x="243.38" y="49.5">MI</tspan>
        </text>
        <text fill="#000" font-family="HelveticaNeue-CondensedBold, Helvetica Neue" font-size="5.408" font-style="condensed" font-weight="bold" letter-spacing=".068" transform="translate(23 15)">
            <tspan x="260.869" y="83.148">OH</tspan>
        </text>
        <text fill="#000" font-family="HelveticaNeue-CondensedBold, Helvetica Neue" font-size="5.408" font-style="condensed" font-weight="bold" letter-spacing=".068" transform="translate(23 15)">
            <tspan x="276.535" y="98.143">WV</tspan>
        </text>
        <text fill="#000" font-family="HelveticaNeue-CondensedBold, Helvetica Neue" font-size="5.408" font-style="condensed" font-weight="bold" letter-spacing=".068" transform="translate(23 15)">
            <tspan x="294.024" y="72.907">PA</tspan>
        </text>
        <text fill="#000" font-family="HelveticaNeue-CondensedBold, Helvetica Neue" font-size="5.408" font-style="condensed" font-weight="bold" letter-spacing=".068" transform="translate(23 15)">
            <tspan x="309.69" y="49.866">NY</tspan>
        </text>
        <text fill="#000" font-family="HelveticaNeue-CondensedBold, Helvetica Neue" font-size="5.408" font-style="condensed" font-weight="bold" letter-spacing=".068" transform="translate(23 15)">
            <tspan x="340.295" y="19.51">MN</tspan>
        </text>
        <text fill="#000" font-family="HelveticaNeue-CondensedBold, Helvetica Neue" font-size="5.408" font-style="condensed" font-weight="bold" letter-spacing=".068" transform="translate(23 15)">
            <tspan x="350.861" y="42.185">MA</tspan>
        </text>
        <path stroke="#000" stroke-linecap="square" stroke-width=".5" d="M372.768 57.425l-8.38 4.755"/>
        <text fill="#000" font-family="HelveticaNeue-CondensedBold, Helvetica Neue" font-size="5.408" font-style="condensed" font-weight="bold" letter-spacing=".068" transform="translate(23 15)">
            <tspan x="351.954" y="61.935">RI</tspan>
        </text>
        <path stroke="#000" stroke-linecap="square" stroke-width=".5" d="M373.861 75.163l-10.201-2.377"/>
        <text fill="#000" font-family="HelveticaNeue-CondensedBold, Helvetica Neue" font-size="5.408" font-style="condensed" font-weight="bold" letter-spacing=".068" transform="translate(23 15)">
            <tspan x="341.388" y="67.055">C</tspan> <tspan x="344.36" y="67.055">T</tspan>
        </text>
        <path stroke="#000" stroke-linecap="square" stroke-width=".5" d="M363.66 78.638l-4.737-4.206"/>
        <text fill="#000" font-family="HelveticaNeue-CondensedBold, Helvetica Neue" font-size="5.408" font-style="condensed" font-weight="bold" letter-spacing=".068" transform="translate(23 15)">
            <tspan x="333.737" y="74.736">NJ</tspan>
        </text>
        <path stroke="#000" stroke-linecap="square" stroke-width=".5" d="M356.008 88.513h-6.74"/>
        <text fill="#000" font-family="HelveticaNeue-CondensedBold, Helvetica Neue" font-size="5.408" font-style="condensed" font-weight="bold" letter-spacing=".068" transform="translate(23 15)">
            <tspan x="327.908" y="84.976">DE</tspan>
        </text>
        <path stroke="#000" stroke-linecap="square" stroke-width=".5" d="M349.997 98.388l-4.919 3.296"/>
        <text fill="#000" font-family="HelveticaNeue-CondensedBold, Helvetica Neue" font-size="5.408" font-style="condensed" font-weight="bold" letter-spacing=".068" transform="translate(23 15)">
            <tspan x="331.551" y="93.754">MD</tspan>
        </text>
        <path stroke="#000" stroke-linecap="square" stroke-width=".5" d="M353.458 106.982l-8.198-.365"/>
        <text fill="#000" font-family="HelveticaNeue-CondensedBold, Helvetica Neue" font-size="5.408" font-style="condensed" font-weight="bold" letter-spacing=".068" transform="translate(23 15)">
            <tspan x="324.628" y="8.903">NH</tspan>
        </text>
        <text fill="#000" font-family="HelveticaNeue-CondensedBold, Helvetica Neue" font-size="5.408" font-style="condensed" font-weight="bold" letter-spacing=".068" transform="translate(23 15)">
            <tspan x="315.884" y="17.681">VT</tspan>
        </text>
        <path stroke="#000" stroke-linecap="square" stroke-width=".5" d="M343.62 34.201l3.644 5.922M352.365 26.52l2.186 9.144"/>
        <text fill="#000" font-family="HelveticaNeue-CondensedBold, Helvetica Neue" font-size="5.408" font-style="condensed" font-weight="bold" letter-spacing=".068" transform="translate(23 15)">
            <tspan x="296.939" y="104.36">VA</tspan>
        </text>
        <text fill="#000" font-family="HelveticaNeue-CondensedBold, Helvetica Neue" font-size="5.408" font-style="condensed" font-weight="bold" letter-spacing=".068" transform="translate(23 15)">
            <tspan x="294.388" y="121.915">NC</tspan>
        </text>
        <text fill="#000" font-family="HelveticaNeue-CondensedBold, Helvetica Neue" font-size="5.408" font-style="condensed" font-weight="bold" letter-spacing=".068" transform="translate(23 15)">
            <tspan x="285.644" y="140.934">SC</tspan>
        </text>
        <text fill="#000" font-family="HelveticaNeue-CondensedBold, Helvetica Neue" font-size="5.408" font-style="condensed" font-weight="bold" letter-spacing=".068" transform="translate(23 15)">
            <tspan x="266.698" y="154.832">GA</tspan>
        </text>
        <text fill="#000" font-family="HelveticaNeue-CondensedBold, Helvetica Neue" font-size="5.408" font-style="condensed" font-weight="bold" letter-spacing=".068" transform="translate(23 15)">
            <tspan x="288.559" y="195.794">FL</tspan>
        </text>
    </g>
</svg>
